%TF.GenerationSoftware,KiCad,Pcbnew,8.0.5*%
%TF.CreationDate,2024-10-23T20:51:02+01:00*%
%TF.ProjectId,DTC-690 Light,4454432d-3639-4302-904c-696768742e6b,0.2*%
%TF.SameCoordinates,Original*%
%TF.FileFunction,Soldermask,Bot*%
%TF.FilePolarity,Negative*%
%FSLAX46Y46*%
G04 Gerber Fmt 4.6, Leading zero omitted, Abs format (unit mm)*
G04 Created by KiCad (PCBNEW 8.0.5) date 2024-10-23 20:51:02*
%MOMM*%
%LPD*%
G01*
G04 APERTURE LIST*
%ADD10C,0.200000*%
G04 APERTURE END LIST*
D10*
X91200000Y-83700000D02*
X94200000Y-83700000D01*
X94200000Y-86200000D01*
X91200000Y-86200000D01*
X91200000Y-83700000D01*
G36*
X91200000Y-83700000D02*
G01*
X94200000Y-83700000D01*
X94200000Y-86200000D01*
X91200000Y-86200000D01*
X91200000Y-83700000D01*
G37*
X101000000Y-83700000D02*
X104000000Y-83700000D01*
X104000000Y-86200000D01*
X101000000Y-86200000D01*
X101000000Y-83700000D01*
G36*
X101000000Y-83700000D02*
G01*
X104000000Y-83700000D01*
X104000000Y-86200000D01*
X101000000Y-86200000D01*
X101000000Y-83700000D01*
G37*
X108900000Y-84000000D02*
X111900000Y-84000000D01*
X111900000Y-86000000D01*
X108900000Y-86000000D01*
X108900000Y-84000000D01*
G36*
X108900000Y-84000000D02*
G01*
X111900000Y-84000000D01*
X111900000Y-86000000D01*
X108900000Y-86000000D01*
X108900000Y-84000000D01*
G37*
X108900000Y-81000000D02*
X111900000Y-81000000D01*
X111900000Y-83000000D01*
X108900000Y-83000000D01*
X108900000Y-81000000D01*
G36*
X108900000Y-81000000D02*
G01*
X111900000Y-81000000D01*
X111900000Y-83000000D01*
X108900000Y-83000000D01*
X108900000Y-81000000D01*
G37*
M02*
