%TF.GenerationSoftware,KiCad,Pcbnew,8.0.5*%
%TF.CreationDate,2024-10-23T20:51:02+01:00*%
%TF.ProjectId,DTC-690 Light,4454432d-3639-4302-904c-696768742e6b,0.2*%
%TF.SameCoordinates,Original*%
%TF.FileFunction,Legend,Top*%
%TF.FilePolarity,Positive*%
%FSLAX46Y46*%
G04 Gerber Fmt 4.6, Leading zero omitted, Abs format (unit mm)*
G04 Created by KiCad (PCBNEW 8.0.5) date 2024-10-23 20:51:02*
%MOMM*%
%LPD*%
G01*
G04 APERTURE LIST*
%ADD10C,0.100000*%
%ADD11C,0.300000*%
G04 APERTURE END LIST*
D10*
X66000000Y-87500000D02*
X114000000Y-87500000D01*
D11*
X66154510Y-82585912D02*
X66154510Y-81085912D01*
X66154510Y-81085912D02*
X66511653Y-81085912D01*
X66511653Y-81085912D02*
X66725939Y-81157341D01*
X66725939Y-81157341D02*
X66868796Y-81300198D01*
X66868796Y-81300198D02*
X66940225Y-81443055D01*
X66940225Y-81443055D02*
X67011653Y-81728769D01*
X67011653Y-81728769D02*
X67011653Y-81943055D01*
X67011653Y-81943055D02*
X66940225Y-82228769D01*
X66940225Y-82228769D02*
X66868796Y-82371626D01*
X66868796Y-82371626D02*
X66725939Y-82514484D01*
X66725939Y-82514484D02*
X66511653Y-82585912D01*
X66511653Y-82585912D02*
X66154510Y-82585912D01*
X67440225Y-81085912D02*
X68297368Y-81085912D01*
X67868796Y-82585912D02*
X67868796Y-81085912D01*
X69654510Y-82443055D02*
X69583082Y-82514484D01*
X69583082Y-82514484D02*
X69368796Y-82585912D01*
X69368796Y-82585912D02*
X69225939Y-82585912D01*
X69225939Y-82585912D02*
X69011653Y-82514484D01*
X69011653Y-82514484D02*
X68868796Y-82371626D01*
X68868796Y-82371626D02*
X68797367Y-82228769D01*
X68797367Y-82228769D02*
X68725939Y-81943055D01*
X68725939Y-81943055D02*
X68725939Y-81728769D01*
X68725939Y-81728769D02*
X68797367Y-81443055D01*
X68797367Y-81443055D02*
X68868796Y-81300198D01*
X68868796Y-81300198D02*
X69011653Y-81157341D01*
X69011653Y-81157341D02*
X69225939Y-81085912D01*
X69225939Y-81085912D02*
X69368796Y-81085912D01*
X69368796Y-81085912D02*
X69583082Y-81157341D01*
X69583082Y-81157341D02*
X69654510Y-81228769D01*
X70297367Y-82014484D02*
X71440225Y-82014484D01*
X72797368Y-81085912D02*
X72511653Y-81085912D01*
X72511653Y-81085912D02*
X72368796Y-81157341D01*
X72368796Y-81157341D02*
X72297368Y-81228769D01*
X72297368Y-81228769D02*
X72154510Y-81443055D01*
X72154510Y-81443055D02*
X72083082Y-81728769D01*
X72083082Y-81728769D02*
X72083082Y-82300198D01*
X72083082Y-82300198D02*
X72154510Y-82443055D01*
X72154510Y-82443055D02*
X72225939Y-82514484D01*
X72225939Y-82514484D02*
X72368796Y-82585912D01*
X72368796Y-82585912D02*
X72654510Y-82585912D01*
X72654510Y-82585912D02*
X72797368Y-82514484D01*
X72797368Y-82514484D02*
X72868796Y-82443055D01*
X72868796Y-82443055D02*
X72940225Y-82300198D01*
X72940225Y-82300198D02*
X72940225Y-81943055D01*
X72940225Y-81943055D02*
X72868796Y-81800198D01*
X72868796Y-81800198D02*
X72797368Y-81728769D01*
X72797368Y-81728769D02*
X72654510Y-81657341D01*
X72654510Y-81657341D02*
X72368796Y-81657341D01*
X72368796Y-81657341D02*
X72225939Y-81728769D01*
X72225939Y-81728769D02*
X72154510Y-81800198D01*
X72154510Y-81800198D02*
X72083082Y-81943055D01*
X73654510Y-82585912D02*
X73940224Y-82585912D01*
X73940224Y-82585912D02*
X74083081Y-82514484D01*
X74083081Y-82514484D02*
X74154510Y-82443055D01*
X74154510Y-82443055D02*
X74297367Y-82228769D01*
X74297367Y-82228769D02*
X74368796Y-81943055D01*
X74368796Y-81943055D02*
X74368796Y-81371626D01*
X74368796Y-81371626D02*
X74297367Y-81228769D01*
X74297367Y-81228769D02*
X74225939Y-81157341D01*
X74225939Y-81157341D02*
X74083081Y-81085912D01*
X74083081Y-81085912D02*
X73797367Y-81085912D01*
X73797367Y-81085912D02*
X73654510Y-81157341D01*
X73654510Y-81157341D02*
X73583081Y-81228769D01*
X73583081Y-81228769D02*
X73511653Y-81371626D01*
X73511653Y-81371626D02*
X73511653Y-81728769D01*
X73511653Y-81728769D02*
X73583081Y-81871626D01*
X73583081Y-81871626D02*
X73654510Y-81943055D01*
X73654510Y-81943055D02*
X73797367Y-82014484D01*
X73797367Y-82014484D02*
X74083081Y-82014484D01*
X74083081Y-82014484D02*
X74225939Y-81943055D01*
X74225939Y-81943055D02*
X74297367Y-81871626D01*
X74297367Y-81871626D02*
X74368796Y-81728769D01*
X75297367Y-81085912D02*
X75440224Y-81085912D01*
X75440224Y-81085912D02*
X75583081Y-81157341D01*
X75583081Y-81157341D02*
X75654510Y-81228769D01*
X75654510Y-81228769D02*
X75725938Y-81371626D01*
X75725938Y-81371626D02*
X75797367Y-81657341D01*
X75797367Y-81657341D02*
X75797367Y-82014484D01*
X75797367Y-82014484D02*
X75725938Y-82300198D01*
X75725938Y-82300198D02*
X75654510Y-82443055D01*
X75654510Y-82443055D02*
X75583081Y-82514484D01*
X75583081Y-82514484D02*
X75440224Y-82585912D01*
X75440224Y-82585912D02*
X75297367Y-82585912D01*
X75297367Y-82585912D02*
X75154510Y-82514484D01*
X75154510Y-82514484D02*
X75083081Y-82443055D01*
X75083081Y-82443055D02*
X75011652Y-82300198D01*
X75011652Y-82300198D02*
X74940224Y-82014484D01*
X74940224Y-82014484D02*
X74940224Y-81657341D01*
X74940224Y-81657341D02*
X75011652Y-81371626D01*
X75011652Y-81371626D02*
X75083081Y-81228769D01*
X75083081Y-81228769D02*
X75154510Y-81157341D01*
X75154510Y-81157341D02*
X75297367Y-81085912D01*
X78297366Y-82585912D02*
X77583080Y-82585912D01*
X77583080Y-82585912D02*
X77583080Y-81085912D01*
X78797366Y-82585912D02*
X78797366Y-81585912D01*
X78797366Y-81085912D02*
X78725938Y-81157341D01*
X78725938Y-81157341D02*
X78797366Y-81228769D01*
X78797366Y-81228769D02*
X78868795Y-81157341D01*
X78868795Y-81157341D02*
X78797366Y-81085912D01*
X78797366Y-81085912D02*
X78797366Y-81228769D01*
X80154510Y-81585912D02*
X80154510Y-82800198D01*
X80154510Y-82800198D02*
X80083081Y-82943055D01*
X80083081Y-82943055D02*
X80011652Y-83014484D01*
X80011652Y-83014484D02*
X79868795Y-83085912D01*
X79868795Y-83085912D02*
X79654510Y-83085912D01*
X79654510Y-83085912D02*
X79511652Y-83014484D01*
X80154510Y-82514484D02*
X80011652Y-82585912D01*
X80011652Y-82585912D02*
X79725938Y-82585912D01*
X79725938Y-82585912D02*
X79583081Y-82514484D01*
X79583081Y-82514484D02*
X79511652Y-82443055D01*
X79511652Y-82443055D02*
X79440224Y-82300198D01*
X79440224Y-82300198D02*
X79440224Y-81871626D01*
X79440224Y-81871626D02*
X79511652Y-81728769D01*
X79511652Y-81728769D02*
X79583081Y-81657341D01*
X79583081Y-81657341D02*
X79725938Y-81585912D01*
X79725938Y-81585912D02*
X80011652Y-81585912D01*
X80011652Y-81585912D02*
X80154510Y-81657341D01*
X80868795Y-82585912D02*
X80868795Y-81085912D01*
X81511653Y-82585912D02*
X81511653Y-81800198D01*
X81511653Y-81800198D02*
X81440224Y-81657341D01*
X81440224Y-81657341D02*
X81297367Y-81585912D01*
X81297367Y-81585912D02*
X81083081Y-81585912D01*
X81083081Y-81585912D02*
X80940224Y-81657341D01*
X80940224Y-81657341D02*
X80868795Y-81728769D01*
X82011653Y-81585912D02*
X82583081Y-81585912D01*
X82225938Y-81085912D02*
X82225938Y-82371626D01*
X82225938Y-82371626D02*
X82297367Y-82514484D01*
X82297367Y-82514484D02*
X82440224Y-82585912D01*
X82440224Y-82585912D02*
X82583081Y-82585912D01*
X65940225Y-83500828D02*
X66440225Y-85000828D01*
X66440225Y-85000828D02*
X66940225Y-83500828D01*
X67725939Y-83500828D02*
X67868796Y-83500828D01*
X67868796Y-83500828D02*
X68011653Y-83572257D01*
X68011653Y-83572257D02*
X68083082Y-83643685D01*
X68083082Y-83643685D02*
X68154510Y-83786542D01*
X68154510Y-83786542D02*
X68225939Y-84072257D01*
X68225939Y-84072257D02*
X68225939Y-84429400D01*
X68225939Y-84429400D02*
X68154510Y-84715114D01*
X68154510Y-84715114D02*
X68083082Y-84857971D01*
X68083082Y-84857971D02*
X68011653Y-84929400D01*
X68011653Y-84929400D02*
X67868796Y-85000828D01*
X67868796Y-85000828D02*
X67725939Y-85000828D01*
X67725939Y-85000828D02*
X67583082Y-84929400D01*
X67583082Y-84929400D02*
X67511653Y-84857971D01*
X67511653Y-84857971D02*
X67440224Y-84715114D01*
X67440224Y-84715114D02*
X67368796Y-84429400D01*
X67368796Y-84429400D02*
X67368796Y-84072257D01*
X67368796Y-84072257D02*
X67440224Y-83786542D01*
X67440224Y-83786542D02*
X67511653Y-83643685D01*
X67511653Y-83643685D02*
X67583082Y-83572257D01*
X67583082Y-83572257D02*
X67725939Y-83500828D01*
X68868795Y-84857971D02*
X68940224Y-84929400D01*
X68940224Y-84929400D02*
X68868795Y-85000828D01*
X68868795Y-85000828D02*
X68797367Y-84929400D01*
X68797367Y-84929400D02*
X68868795Y-84857971D01*
X68868795Y-84857971D02*
X68868795Y-85000828D01*
X69511653Y-83643685D02*
X69583081Y-83572257D01*
X69583081Y-83572257D02*
X69725939Y-83500828D01*
X69725939Y-83500828D02*
X70083081Y-83500828D01*
X70083081Y-83500828D02*
X70225939Y-83572257D01*
X70225939Y-83572257D02*
X70297367Y-83643685D01*
X70297367Y-83643685D02*
X70368796Y-83786542D01*
X70368796Y-83786542D02*
X70368796Y-83929400D01*
X70368796Y-83929400D02*
X70297367Y-84143685D01*
X70297367Y-84143685D02*
X69440224Y-85000828D01*
X69440224Y-85000828D02*
X70368796Y-85000828D01*
M02*
